<svg xmlns="http://www.w3.org/2000/svg" viewBox="0 0 24 24" width="20" height="20"><path fill="#4C75A3" d="M12 2C6.477 2 2 6.477 2 12s4.477 10 10 10 10-4.477 10-10S17.523 2 12 2z"/><path fill="#fff" d="M16.7 15.6c-.2-.3-.4-.5-.7-.8-.5-.6-.6-.8-.3-1.2.3-.4 1.3-1.4 1.3-2.3 0-1.6-1.2-2-1.8-2h-2.8c-.4 0-.6.2-.6.5v6.2c0 .3.2.5.6.5h.7v1.6c2 .1 3.4-.2 3.6-2.5zM11 8.3H9.4c-.3 0-.4.1-.6.3-.4.5-.7 1.3-1.1 2-.5.9-1 1.6-1.4 1.8-.2.1-.4.2-.4.4 0 .2.2.3.5.3h1.5c.3 0 .4-.1.6-.3.4-.4.8-1 1.2-1.8.2-.4.4-.7.5-.9v3.7c0 .3.2.5.6.5H12V8.8c0-.3-.2-.5-.6-.5z"/></svg>